<?xml version="1.0" standalone="no"?>
<!DOCTYPE svg PUBLIC "-//W3C//DTD SVG 20010904//EN"
 "http://www.w3.org/TR/2001/REC-SVG-20010904/DTD/svg10.dtd">
<svg version="1.0" xmlns="http://www.w3.org/2000/svg"
 width="32.000000pt" height="32.000000pt" viewBox="0 0 32.000000 32.000000"
 preserveAspectRatio="xMidYMid meet">
<metadata>
Created by potrace 1.16, written by Peter Selinger 2001-2019
</metadata>
<g transform="translate(0.000000,32.000000) scale(0.100000,-0.100000)"
fill="#000000" stroke="none">
<path d="M25 295 c-24 -23 -25 -31 -25 -135 0 -104 1 -112 25 -135 23 -24 31
-25 135 -25 104 0 112 1 135 25 24 23 25 31 25 135 0 104 -1 112 -25 135 -23
24 -31 25 -135 25 -104 0 -112 -1 -135 -25z m189 -61 c9 -8 16 -22 16 -30 0
-20 -30 -18 -46 4 -20 27 -48 4 -52 -45 -3 -43 16 -70 43 -59 19 7 20 36 0 36
-8 0 -15 7 -15 16 0 12 9 14 38 12 34 -3 37 -6 40 -38 4 -41 -16 -60 -66 -60
-47 0 -69 14 -82 55 -13 41 1 99 28 115 26 15 79 12 96 -6z"/>
</g>
</svg>
